<svg xmlns="http://www.w3.org/2000/svg"
 width="1024" height="1024" viewBox="0 0 1024 1024"
 preserveAspectRatio="xMidYMid meet">

<g transform="translate(0.000000,1024.000000) scale(0.100000,-0.100000)"
fill="#000000" stroke="none">
<path d="M3990 7414 c-194 -41 -354 -127 -491 -264 -149 -149 -238 -318 -274
-526 -12 -70 -15 -186 -15 -593 l0 -507 -70 -69 -70 -69 0 -306 0 -306 70 -69
70 -69 0 -507 c0 -547 4 -606 55 -751 134 -383 499 -647 896 -648 119 0 192
23 272 85 114 90 162 198 155 351 -5 118 -41 198 -125 274 -83 76 -112 88
-288 119 -47 9 -67 18 -95 46 l-35 35 -5 633 -5 632 -27 58 c-15 32 -37 71
-49 88 l-21 30 26 37 c14 20 35 60 48 87 l23 50 5 625 c4 447 8 631 17 645 29
50 59 66 152 80 112 17 185 49 252 111 91 86 130 175 130 299 -1 97 -18 157
-66 230 -36 53 -106 119 -153 144 -80 42 -252 53 -382 25z"/>
<path d="M7360 7410 c-111 -40 -215 -153 -251 -272 -45 -148 -7 -300 104 -410
71 -72 140 -105 247 -119 101 -14 134 -29 160 -72 19 -31 20 -55 20 -607 0
-316 4 -603 9 -638 10 -68 39 -137 78 -182 l24 -29 -35 -46 c-71 -92 -70 -80
-76 -770 -5 -570 -6 -623 -23 -648 -24 -37 -66 -56 -139 -64 -308 -31 -479
-337 -341 -608 33 -63 120 -144 193 -179 116 -55 312 -47 504 20 261 91 489
319 580 580 54 154 56 183 56 741 l0 519 70 69 70 69 0 316 0 316 -70 69 -70
69 0 519 c0 552 -2 586 -52 732 -99 289 -355 528 -660 616 -52 15 -111 22
-208 25 -117 3 -143 1 -190 -16z"/>
<path d="M6273 6586 c-63 -21 -123 -59 -175 -113 -41 -42 -120 -194 -621
-1198 -316 -632 -579 -1166 -585 -1185 -47 -151 -1 -315 122 -426 86 -78 145
-99 276 -99 97 0 110 2 172 32 140 66 101 -1 746 1290 346 691 584 1180 592
1212 42 177 -50 372 -215 456 -68 35 -82 38 -172 41 -65 3 -112 -1 -140 -10z"/>
<path d="M4450 5765 l0 -405 75 0 75 0 0 280 c0 154 3 280 8 280 4 0 84 -125
178 -278 l170 -277 82 -3 82 -3 0 406 0 405 -75 0 -75 0 0 -260 c0 -143 -4
-260 -8 -260 -5 0 -82 117 -171 260 l-162 260 -90 0 -89 0 0 -405z"/>
<path d="M6660 4740 l0 -350 70 0 70 0 0 150 c0 114 3 150 13 149 6 0 66 -67
132 -149 l120 -150 78 0 c42 0 77 4 77 8 0 5 -63 88 -141 185 -98 123 -138
181 -132 190 14 17 224 279 241 300 14 16 10 17 -61 17 l-76 0 -113 -139 c-62
-77 -119 -140 -125 -140 -10 -1 -13 33 -13 139 l0 140 -70 0 -70 0 0 -350z"/>
</g>
</svg>
